{
  "asset": {
    "generator": "Khronos glTF Blender I/O v3.3.32",
    "version": "2.0"
  },
  "scene": 0,
  "scenes": [
    {
      "name": "Scene",
      "nodes": [
        0
      ]
    }
  ],
  "nodes": [
    {
      "mesh": 0,
      "name": "machete"
    }
  ],
  "materials": [
    {
      "doubleSided": true,
      "name": "machete",
      "pbrMetallicRoughness": {}
    }
  ],
  "meshes": [
    {
      "name": "Cylinder.001",
      "primitives": [
        {
          "attributes": {
            "POSITION": 0,
            "NORMAL": 1,
            "TEXCOORD_0": 2
          },
          "indices": 3,
          "material": 0
        }
      ]
    }
  ],
  "accessors": [
    {
      "bufferView": 0,
      "componentType": 5126,
      "count": 1757,
      "max": [
        0.022188479080796242,
        0.5411764979362488,
        0.04168795421719551
      ],
      "min": [
        -0.022188479080796242,
        -0.21362648904323578,
        -0.01942705735564232
      ],
      "type": "VEC3"
    },
    {
      "bufferView": 1,
      "componentType": 5126,
      "count": 1757,
      "type": "VEC3"
    },
    {
      "bufferView": 2,
      "componentType": 5126,
      "count": 1757,
      "type": "VEC2"
    },
    {
      "bufferView": 3,
      "componentType": 5123,
      "count": 9096,
      "type": "SCALAR"
    }
  ],
  "bufferViews": [
    {
      "buffer": 0,
      "byteLength": 21084,
      "byteOffset": 0,
      "target": 34962
    },
    {
      "buffer": 0,
      "byteLength": 21084,
      "byteOffset": 21084,
      "target": 34962
    },
    {
      "buffer": 0,
      "byteLength": 14056,
      "byteOffset": 42168,
      "target": 34962
    },
    {
      "buffer": 0,
      "byteLength": 18192,
      "byteOffset": 56224,
      "target": 34963
    }
  ],
  "buffers": [
    {
      "byteLength": 74416,
      "uri": "machete.bin"
    }
  ]
}
