{
  "asset": {
    "generator": "Khronos glTF Blender I/O v5.1.20",
    "version": "2.0"
  },
  "scene": 0,
  "scenes": [
    {
      "name": "Scene",
      "nodes": [
        0
      ]
    }
  ],
  "nodes": [
    {
      "mesh": 0,
      "name": "plastic_crate_01"
    }
  ],
  "materials": [
    {
      "doubleSided": true,
      "name": "plastic_crate_01",
      "pbrMetallicRoughness": {}
    }
  ],
  "meshes": [
    {
      "name": "Cube.047",
      "primitives": [
        {
          "attributes": {
            "POSITION": 0,
            "NORMAL": 1,
            "TEXCOORD_0": 2
          },
          "indices": 3,
          "material": 0
        }
      ]
    }
  ],
  "accessors": [
    {
      "bufferView": 0,
      "componentType": 5126,
      "count": 21250,
      "max": [
        0.14900031685829163,
        0.2641694247722626,
        0.20400206744670868
      ],
      "min": [
        -0.14900031685829163,
        0,
        -0.20400206744670868
      ],
      "type": "VEC3"
    },
    {
      "bufferView": 1,
      "componentType": 5126,
      "count": 21250,
      "type": "VEC3"
    },
    {
      "bufferView": 2,
      "componentType": 5126,
      "count": 21250,
      "type": "VEC2"
    },
    {
      "bufferView": 3,
      "componentType": 5123,
      "count": 54960,
      "type": "SCALAR"
    }
  ],
  "bufferViews": [
    {
      "buffer": 0,
      "byteLength": 255000,
      "byteOffset": 0,
      "target": 34962
    },
    {
      "buffer": 0,
      "byteLength": 255000,
      "byteOffset": 255000,
      "target": 34962
    },
    {
      "buffer": 0,
      "byteLength": 170000,
      "byteOffset": 510000,
      "target": 34962
    },
    {
      "buffer": 0,
      "byteLength": 109920,
      "byteOffset": 680000,
      "target": 34963
    }
  ],
  "buffers": [
    {
      "byteLength": 789920,
      "uri": "plastic_crate_01.bin"
    }
  ]
}
