{
  "asset": {
    "generator": "Khronos glTF Blender I/O v4.4.56",
    "version": "2.0"
  },
  "extensionsUsed": [
    "KHR_materials_specular",
    "KHR_materials_ior",
    "KHR_texture_transform"
  ],
  "extensionsRequired": [
    "KHR_texture_transform"
  ],
  "scene": 0,
  "scenes": [
    {
      "name": "Scene",
      "nodes": [
        0
      ]
    }
  ],
  "nodes": [
    {
      "mesh": 0,
      "name": "island_tree_02_LOD0"
    }
  ],
  "materials": [
    {
      "doubleSided": true,
      "name": "island_tree_02",
      "pbrMetallicRoughness": {
        "metallicFactor": 0
      }
    },
    {
      "alphaMode": "BLEND",
      "doubleSided": true,
      "name": "island_tree_02_leaves",
      "pbrMetallicRoughness": {
        "metallicFactor": 0
      }
    },
    {
      "doubleSided": true,
      "name": "island_tree_02_branches",
      "pbrMetallicRoughness": {
        "metallicFactor": 0
      }
    }
  ],
  "meshes": [
    {
      "name": "mesh.001",
      "primitives": [
        {
          "attributes": {
            "POSITION": 0,
            "NORMAL": 1,
            "TEXCOORD_0": 2
          },
          "indices": 3,
          "material": 0
        },
        {
          "attributes": {
            "POSITION": 4,
            "NORMAL": 5,
            "TEXCOORD_0": 6
          },
          "indices": 7,
          "material": 1
        },
        {
          "attributes": {
            "POSITION": 8,
            "NORMAL": 9,
            "TEXCOORD_0": 10
          },
          "indices": 11,
          "material": 2
        }
      ]
    }
  ],
  "accessors": [
    {
      "bufferView": 0,
      "componentType": 5126,
      "count": 15219,
      "max": [
        1.2416797876358032,
        2.5996620655059814,
        2.26574444770813
      ],
      "min": [
        -1.1161692142486572,
        -0.017011718824505806,
        -0.45452672243118286
      ],
      "type": "VEC3"
    },
    {
      "bufferView": 1,
      "componentType": 5126,
      "count": 15219,
      "type": "VEC3"
    },
    {
      "bufferView": 2,
      "componentType": 5126,
      "count": 15219,
      "type": "VEC2"
    },
    {
      "bufferView": 3,
      "componentType": 5123,
      "count": 81894,
      "type": "SCALAR"
    },
    {
      "bufferView": 4,
      "componentType": 5126,
      "count": 625401,
      "max": [
        2.0120034217834473,
        3.389594078063965,
        2.956543207168579
      ],
      "min": [
        -1.8560643196105957,
        1.2472409009933472,
        -1.1141542196273804
      ],
      "type": "VEC3"
    },
    {
      "bufferView": 5,
      "componentType": 5126,
      "count": 625401,
      "type": "VEC3"
    },
    {
      "bufferView": 6,
      "componentType": 5126,
      "count": 625401,
      "type": "VEC2"
    },
    {
      "bufferView": 7,
      "componentType": 5125,
      "count": 2144232,
      "type": "SCALAR"
    },
    {
      "bufferView": 8,
      "componentType": 5126,
      "count": 233874,
      "max": [
        2.155407428741455,
        3.3729922771453857,
        2.9034361839294434
      ],
      "min": [
        -2.052337884902954,
        1.2643797397613525,
        -1.072293996810913
      ],
      "type": "VEC3"
    },
    {
      "bufferView": 9,
      "componentType": 5126,
      "count": 233874,
      "type": "VEC3"
    },
    {
      "bufferView": 10,
      "componentType": 5126,
      "count": 233874,
      "type": "VEC2"
    },
    {
      "bufferView": 11,
      "componentType": 5125,
      "count": 990513,
      "type": "SCALAR"
    }
  ],
  "bufferViews": [
    {
      "buffer": 0,
      "byteLength": 182628,
      "byteOffset": 0,
      "target": 34962
    },
    {
      "buffer": 0,
      "byteLength": 182628,
      "byteOffset": 182628,
      "target": 34962
    },
    {
      "buffer": 0,
      "byteLength": 121752,
      "byteOffset": 365256,
      "target": 34962
    },
    {
      "buffer": 0,
      "byteLength": 163788,
      "byteOffset": 487008,
      "target": 34963
    },
    {
      "buffer": 0,
      "byteLength": 7504812,
      "byteOffset": 650796,
      "target": 34962
    },
    {
      "buffer": 0,
      "byteLength": 7504812,
      "byteOffset": 8155608,
      "target": 34962
    },
    {
      "buffer": 0,
      "byteLength": 5003208,
      "byteOffset": 15660420,
      "target": 34962
    },
    {
      "buffer": 0,
      "byteLength": 8576928,
      "byteOffset": 20663628,
      "target": 34963
    },
    {
      "buffer": 0,
      "byteLength": 2806488,
      "byteOffset": 29240556,
      "target": 34962
    },
    {
      "buffer": 0,
      "byteLength": 2806488,
      "byteOffset": 32047044,
      "target": 34962
    },
    {
      "buffer": 0,
      "byteLength": 1870992,
      "byteOffset": 34853532,
      "target": 34962
    },
    {
      "buffer": 0,
      "byteLength": 3962052,
      "byteOffset": 36724524,
      "target": 34963
    }
  ],
  "buffers": [
    {
      "byteLength": 40686576,
      "uri": "island_tree_02.bin"
    }
  ]
}
