{
  "asset": {
    "generator": "Khronos glTF Blender I/O v4.2.57",
    "version": "2.0"
  },
  "scene": 0,
  "scenes": [
    {
      "name": "Scene",
      "nodes": [
        0
      ]
    }
  ],
  "nodes": [
    {
      "mesh": 0,
      "name": "boulder_04"
    }
  ],
  "materials": [
    {
      "doubleSided": true,
      "name": "boulder_04",
      "pbrMetallicRoughness": {
        "metallicFactor": 0
      }
    }
  ],
  "meshes": [
    {
      "name": "realCap_Model_2",
      "primitives": [
        {
          "attributes": {
            "POSITION": 0,
            "NORMAL": 1,
            "TEXCOORD_0": 2
          },
          "indices": 3,
          "material": 0
        }
      ]
    }
  ],
  "accessors": [
    {
      "bufferView": 0,
      "componentType": 5126,
      "count": 30165,
      "max": [
        1.1818602085113525,
        1.8710765838623047,
        1.4653747081756592
      ],
      "min": [
        -1.3402929306030273,
        -0.029385626316070557,
        -1.0310475826263428
      ],
      "type": "VEC3"
    },
    {
      "bufferView": 1,
      "componentType": 5126,
      "count": 30165,
      "type": "VEC3"
    },
    {
      "bufferView": 2,
      "componentType": 5126,
      "count": 30165,
      "type": "VEC2"
    },
    {
      "bufferView": 3,
      "componentType": 5123,
      "count": 177198,
      "type": "SCALAR"
    }
  ],
  "bufferViews": [
    {
      "buffer": 0,
      "byteLength": 361980,
      "byteOffset": 0,
      "target": 34962
    },
    {
      "buffer": 0,
      "byteLength": 361980,
      "byteOffset": 361980,
      "target": 34962
    },
    {
      "buffer": 0,
      "byteLength": 241320,
      "byteOffset": 723960,
      "target": 34962
    },
    {
      "buffer": 0,
      "byteLength": 354396,
      "byteOffset": 965280,
      "target": 34963
    }
  ],
  "buffers": [
    {
      "byteLength": 1319676,
      "uri": "namaqualand_boulder_04.bin"
    }
  ]
}
