{
  "asset": {
    "generator": "Khronos glTF Blender I/O v3.4.50",
    "version": "2.0"
  },
  "scene": 0,
  "scenes": [
    {
      "name": "Scene",
      "nodes": [
        0
      ]
    }
  ],
  "nodes": [
    {
      "mesh": 0,
      "name": "planter_box_01"
    }
  ],
  "materials": [
    {
      "doubleSided": true,
      "name": "planter_box_01",
      "pbrMetallicRoughness": {}
    }
  ],
  "meshes": [
    {
      "name": "Plane.003",
      "primitives": [
        {
          "attributes": {
            "POSITION": 0,
            "TEXCOORD_0": 1,
            "NORMAL": 2
          },
          "indices": 3,
          "material": 0
        }
      ]
    }
  ],
  "accessors": [
    {
      "bufferView": 0,
      "componentType": 5126,
      "count": 6313,
      "max": [
        0.4558956027030945,
        0.42499640583992004,
        0.20653319358825684
      ],
      "min": [
        -0.45671579241752625,
        0.00002816971391439438,
        -0.20713478326797485
      ],
      "type": "VEC3"
    },
    {
      "bufferView": 1,
      "componentType": 5126,
      "count": 6313,
      "type": "VEC2"
    },
    {
      "bufferView": 2,
      "componentType": 5126,
      "count": 6313,
      "type": "VEC3"
    },
    {
      "bufferView": 3,
      "componentType": 5123,
      "count": 24282,
      "type": "SCALAR"
    }
  ],
  "bufferViews": [
    {
      "buffer": 0,
      "byteLength": 75756,
      "byteOffset": 0,
      "target": 34962
    },
    {
      "buffer": 0,
      "byteLength": 50504,
      "byteOffset": 75756,
      "target": 34962
    },
    {
      "buffer": 0,
      "byteLength": 75756,
      "byteOffset": 126260,
      "target": 34962
    },
    {
      "buffer": 0,
      "byteLength": 48564,
      "byteOffset": 202016,
      "target": 34963
    }
  ],
  "buffers": [
    {
      "byteLength": 250580,
      "uri": "planter_box_01.bin"
    }
  ]
}
