{
  "asset": {
    "generator": "Khronos glTF Blender I/O v5.0.21",
    "version": "2.0"
  },
  "scene": 0,
  "scenes": [
    {
      "name": "Scene",
      "nodes": [
        2
      ]
    }
  ],
  "nodes": [
    {
      "mesh": 0,
      "name": "Fabric",
      "translation": [
        0,
        -0.04088573902845383,
        -4.7925848960876465
      ]
    },
    {
      "mesh": 1,
      "name": "Liquid",
      "translation": [
        0,
        0.03665944188833237,
        0.23978853225708008
      ]
    },
    {
      "children": [
        0,
        1
      ],
      "mesh": 2,
      "name": "Bottle",
      "rotation": [
        0.7071068286895752,
        0,
        0,
        0.7071068286895752
      ],
      "scale": [
        0.009999999776482582,
        0.009999999776482582,
        0.009999999776482582
      ],
      "translation": [
        0,
        -0.04223373159766197,
        -0.0007448936812579632
      ]
    }
  ],
  "materials": [
    {
      "doubleSided": true,
      "name": "Fabric",
      "pbrMetallicRoughness": {
        "metallicFactor": 0,
        "roughnessFactor": 0.5
      }
    },
    {
      "doubleSided": true,
      "name": "Liquid",
      "pbrMetallicRoughness": {
        "metallicFactor": 0,
        "roughnessFactor": 0.5
      }
    },
    {
      "alphaMode": "BLEND",
      "doubleSided": true,
      "name": "Bottle",
      "pbrMetallicRoughness": {}
    }
  ],
  "meshes": [
    {
      "name": "Mesh.001",
      "primitives": [
        {
          "attributes": {
            "POSITION": 0,
            "NORMAL": 1,
            "TEXCOORD_0": 2
          },
          "indices": 3,
          "material": 0
        }
      ]
    },
    {
      "name": "Mesh.002",
      "primitives": [
        {
          "attributes": {
            "POSITION": 4,
            "NORMAL": 5,
            "TEXCOORD_0": 6
          },
          "indices": 7,
          "material": 1
        }
      ]
    },
    {
      "name": "Mesh",
      "primitives": [
        {
          "attributes": {
            "POSITION": 8,
            "NORMAL": 9,
            "TEXCOORD_0": 10
          },
          "indices": 11,
          "material": 2
        }
      ]
    }
  ],
  "accessors": [
    {
      "bufferView": 0,
      "componentType": 5126,
      "count": 946,
      "max": [
        0.8179744482040405,
        1.6883788108825684,
        7.819706916809082
      ],
      "min": [
        -0.7654501795768738,
        -5.303152561187744,
        -10.009061813354492
      ],
      "type": "VEC3"
    },
    {
      "bufferView": 1,
      "componentType": 5126,
      "count": 946,
      "type": "VEC3"
    },
    {
      "bufferView": 2,
      "componentType": 5126,
      "count": 946,
      "type": "VEC2"
    },
    {
      "bufferView": 3,
      "componentType": 5123,
      "count": 2832,
      "type": "SCALAR"
    },
    {
      "bufferView": 4,
      "componentType": 5126,
      "count": 100,
      "max": [
        2.4963011741638184,
        4.643149375915527,
        5.11415958404541
      ],
      "min": [
        -2.4963011741638184,
        -2.402460813522339,
        -5.922196865081787
      ],
      "type": "VEC3"
    },
    {
      "bufferView": 5,
      "componentType": 5126,
      "count": 100,
      "type": "VEC3"
    },
    {
      "bufferView": 6,
      "componentType": 5126,
      "count": 100,
      "type": "VEC2"
    },
    {
      "bufferView": 7,
      "componentType": 5123,
      "count": 372,
      "type": "SCALAR"
    },
    {
      "bufferView": 8,
      "componentType": 5126,
      "count": 1223,
      "max": [
        2.7244105339050293,
        4.956167697906494,
        5.8885979652404785
      ],
      "min": [
        -2.7244105339050293,
        -3.46927547454834,
        -14.654919624328613
      ],
      "type": "VEC3"
    },
    {
      "bufferView": 9,
      "componentType": 5126,
      "count": 1223,
      "type": "VEC3"
    },
    {
      "bufferView": 10,
      "componentType": 5126,
      "count": 1223,
      "type": "VEC2"
    },
    {
      "bufferView": 11,
      "componentType": 5123,
      "count": 5280,
      "type": "SCALAR"
    }
  ],
  "bufferViews": [
    {
      "buffer": 0,
      "byteOffset": 0,
      "byteLength": 11352,
      "target": 34962
    },
    {
      "buffer": 0,
      "byteOffset": 11352,
      "byteLength": 11352,
      "target": 34962
    },
    {
      "buffer": 0,
      "byteOffset": 22704,
      "byteLength": 7568,
      "target": 34962
    },
    {
      "buffer": 0,
      "byteOffset": 30272,
      "byteLength": 5664,
      "target": 34963
    },
    {
      "buffer": 0,
      "byteOffset": 35936,
      "byteLength": 1200,
      "target": 34962
    },
    {
      "buffer": 0,
      "byteOffset": 37136,
      "byteLength": 1200,
      "target": 34962
    },
    {
      "buffer": 0,
      "byteOffset": 38336,
      "byteLength": 800,
      "target": 34962
    },
    {
      "buffer": 0,
      "byteOffset": 39136,
      "byteLength": 744,
      "target": 34963
    },
    {
      "buffer": 0,
      "byteOffset": 39880,
      "byteLength": 14676,
      "target": 34962
    },
    {
      "buffer": 0,
      "byteOffset": 54556,
      "byteLength": 14676,
      "target": 34962
    },
    {
      "buffer": 0,
      "byteOffset": 69232,
      "byteLength": 9784,
      "target": 34962
    },
    {
      "buffer": 0,
      "byteOffset": 79016,
      "byteLength": 10560,
      "target": 34963
    }
  ],
  "buffers": [
    {
      "uri": "wep_molotov.bin",
      "byteLength": 89576
    }
  ]
}