{
  "asset": {
    "generator": "Khronos glTF Blender I/O v4.2.57",
    "version": "2.0"
  },
  "scene": 0,
  "scenes": [
    {
      "name": "Scene",
      "nodes": [
        0
      ]
    }
  ],
  "nodes": [
    {
      "mesh": 0,
      "name": "quiver_tree_01"
    }
  ],
  "materials": [
    {
      "doubleSided": true,
      "name": "quiver_tree_01_trunk",
      "normalTexture": {
        "index": 0
      },
      "pbrMetallicRoughness": {
        "baseColorTexture": {
          "index": 1
        },
        "metallicFactor": 0,
        "metallicRoughnessTexture": {
          "index": 2
        }
      }
    },
    {
      "alphaMode": "BLEND",
      "doubleSided": true,
      "name": "quiver_tree_01_leaf",
      "normalTexture": {
        "index": 3
      },
      "pbrMetallicRoughness": {
        "baseColorTexture": {
          "index": 4
        },
        "metallicFactor": 0,
        "metallicRoughnessTexture": {
          "index": 5
        }
      }
    }
  ],
  "meshes": [
    {
      "name": "realCap_Model_1.009",
      "primitives": [
        {
          "attributes": {
            "POSITION": 0,
            "NORMAL": 1,
            "TEXCOORD_0": 2
          },
          "indices": 3,
          "material": 0
        },
        {
          "attributes": {
            "POSITION": 4,
            "NORMAL": 5,
            "TEXCOORD_0": 6
          },
          "indices": 7,
          "material": 1
        }
      ]
    }
  ],
  "textures": [
    {
      "sampler": 0,
      "source": 0
    },
    {
      "sampler": 0,
      "source": 1
    },
    {
      "sampler": 0,
      "source": 2
    },
    {
      "sampler": 0,
      "source": 3
    },
    {
      "sampler": 0,
      "source": 4
    },
    {
      "sampler": 0,
      "source": 5
    }
  ],
  "images": [
    {
      "mimeType": "image/jpeg",
      "name": "quiver_tree_01_trunk_nor_gl",
      "uri": "textures/quiver_tree_01_trunk_nor_gl_1k.jpg"
    },
    {
      "mimeType": "image/jpeg",
      "name": "quiver_tree_01_trunk_diff",
      "uri": "textures/quiver_tree_01_trunk_diff_1k.jpg"
    },
    {
      "mimeType": "image/jpeg",
      "name": "quiver_tree_01_trunk_rough",
      "uri": "textures/quiver_tree_01_trunk_arm_1k.jpg"
    },
    {
      "mimeType": "image/jpeg",
      "name": "quiver_tree_01_leaf_nor_gl",
      "uri": "textures/quiver_tree_01_leaf_nor_gl_1k.jpg"
    },
    {
      "mimeType": "image/jpeg",
      "name": "quiver_tree_01_leaf_diff",
      "uri": "textures/quiver_tree_01_leaf_diff_1k.jpg"
    },
    {
      "mimeType": "image/jpeg",
      "name": "quiver_tree_01_leaf_rough",
      "uri": "textures/quiver_tree_01_leaf_arm_1k.jpg"
    }
  ],
  "accessors": [
    {
      "bufferView": 0,
      "componentType": 5126,
      "count": 19226,
      "max": [
        0.2945343852043152,
        2.3926751613616943,
        0.2550162076950073
      ],
      "min": [
        -0.32143649458885193,
        -0.04178193211555481,
        -0.2008068710565567
      ],
      "type": "VEC3"
    },
    {
      "bufferView": 1,
      "componentType": 5126,
      "count": 19226,
      "type": "VEC3"
    },
    {
      "bufferView": 2,
      "componentType": 5126,
      "count": 19226,
      "type": "VEC2"
    },
    {
      "bufferView": 3,
      "componentType": 5123,
      "count": 110910,
      "type": "SCALAR"
    },
    {
      "bufferView": 4,
      "componentType": 5126,
      "count": 69322,
      "max": [
        0.6341953873634338,
        2.6736388206481934,
        0.5023961067199707
      ],
      "min": [
        -0.5470402836799622,
        1.9603651762008667,
        -0.46610933542251587
      ],
      "type": "VEC3"
    },
    {
      "bufferView": 5,
      "componentType": 5126,
      "count": 69322,
      "type": "VEC3"
    },
    {
      "bufferView": 6,
      "componentType": 5126,
      "count": 69322,
      "type": "VEC2"
    },
    {
      "bufferView": 7,
      "componentType": 5125,
      "count": 339462,
      "type": "SCALAR"
    }
  ],
  "bufferViews": [
    {
      "buffer": 0,
      "byteLength": 230712,
      "byteOffset": 0,
      "target": 34962
    },
    {
      "buffer": 0,
      "byteLength": 230712,
      "byteOffset": 230712,
      "target": 34962
    },
    {
      "buffer": 0,
      "byteLength": 153808,
      "byteOffset": 461424,
      "target": 34962
    },
    {
      "buffer": 0,
      "byteLength": 221820,
      "byteOffset": 615232,
      "target": 34963
    },
    {
      "buffer": 0,
      "byteLength": 831864,
      "byteOffset": 837052,
      "target": 34962
    },
    {
      "buffer": 0,
      "byteLength": 831864,
      "byteOffset": 1668916,
      "target": 34962
    },
    {
      "buffer": 0,
      "byteLength": 554576,
      "byteOffset": 2500780,
      "target": 34962
    },
    {
      "buffer": 0,
      "byteLength": 1357848,
      "byteOffset": 3055356,
      "target": 34963
    }
  ],
  "samplers": [
    {
      "magFilter": 9729,
      "minFilter": 9987
    }
  ],
  "buffers": [
    {
      "byteLength": 4413204,
      "uri": "quiver_tree_01.bin"
    }
  ]
}