{
  "asset": {
    "generator": "Khronos glTF Blender I/O v4.4.56",
    "version": "2.0"
  },
  "extensionsUsed": [
    "KHR_materials_specular",
    "KHR_materials_ior",
    "KHR_texture_transform"
  ],
  "extensionsRequired": [
    "KHR_texture_transform"
  ],
  "scene": 0,
  "scenes": [
    {
      "name": "Scene",
      "nodes": [
        0
      ]
    }
  ],
  "nodes": [
    {
      "mesh": 0,
      "name": "island_tree_01_LOD0"
    }
  ],
  "materials": [
    {
      "doubleSided": true,
      "name": "island_tree_01",
      "pbrMetallicRoughness": {
        "metallicFactor": 0
      }
    },
    {
      "alphaMode": "BLEND",
      "doubleSided": true,
      "name": "island_tree_01_leaves",
      "pbrMetallicRoughness": {
        "metallicFactor": 0
      }
    },
    {
      "doubleSided": true,
      "name": "island_tree_01_branches",
      "pbrMetallicRoughness": {
        "metallicFactor": 0
      }
    }
  ],
  "meshes": [
    {
      "name": "island_trees_01_blockout_cleaned",
      "primitives": [
        {
          "attributes": {
            "POSITION": 0,
            "NORMAL": 1,
            "TEXCOORD_0": 2
          },
          "indices": 3,
          "material": 0
        },
        {
          "attributes": {
            "POSITION": 4,
            "NORMAL": 5,
            "TEXCOORD_0": 6
          },
          "indices": 7,
          "material": 1
        },
        {
          "attributes": {
            "POSITION": 8,
            "NORMAL": 9,
            "TEXCOORD_0": 10
          },
          "indices": 11,
          "material": 2
        }
      ]
    }
  ],
  "accessors": [
    {
      "bufferView": 0,
      "componentType": 5126,
      "count": 19345,
      "max": [
        1.7236499786376953,
        3.5607376098632812,
        1.2547868490219116
      ],
      "min": [
        -1.4278439283370972,
        -0.020327899605035782,
        -1.7317125797271729
      ],
      "type": "VEC3"
    },
    {
      "bufferView": 1,
      "componentType": 5126,
      "count": 19345,
      "type": "VEC3"
    },
    {
      "bufferView": 2,
      "componentType": 5126,
      "count": 19345,
      "type": "VEC2"
    },
    {
      "bufferView": 3,
      "componentType": 5123,
      "count": 104361,
      "type": "SCALAR"
    },
    {
      "bufferView": 4,
      "componentType": 5126,
      "count": 927528,
      "max": [
        2.4107038974761963,
        5.0071187019348145,
        2.2341415882110596
      ],
      "min": [
        -2.3444457054138184,
        0.6301747560501099,
        -2.583538055419922
      ],
      "type": "VEC3"
    },
    {
      "bufferView": 5,
      "componentType": 5126,
      "count": 927528,
      "type": "VEC3"
    },
    {
      "bufferView": 6,
      "componentType": 5126,
      "count": 927528,
      "type": "VEC2"
    },
    {
      "bufferView": 7,
      "componentType": 5125,
      "count": 3180096,
      "type": "SCALAR"
    },
    {
      "bufferView": 8,
      "componentType": 5126,
      "count": 357055,
      "max": [
        2.3549556732177734,
        4.951547622680664,
        2.202267646789551
      ],
      "min": [
        -2.3148062229156494,
        0.649992048740387,
        -2.542656898498535
      ],
      "type": "VEC3"
    },
    {
      "bufferView": 9,
      "componentType": 5126,
      "count": 357055,
      "type": "VEC3"
    },
    {
      "bufferView": 10,
      "componentType": 5126,
      "count": 357055,
      "type": "VEC2"
    },
    {
      "bufferView": 11,
      "componentType": 5125,
      "count": 1513752,
      "type": "SCALAR"
    }
  ],
  "bufferViews": [
    {
      "buffer": 0,
      "byteLength": 232140,
      "byteOffset": 0,
      "target": 34962
    },
    {
      "buffer": 0,
      "byteLength": 232140,
      "byteOffset": 232140,
      "target": 34962
    },
    {
      "buffer": 0,
      "byteLength": 154760,
      "byteOffset": 464280,
      "target": 34962
    },
    {
      "buffer": 0,
      "byteLength": 208722,
      "byteOffset": 619040,
      "target": 34963
    },
    {
      "buffer": 0,
      "byteLength": 11130336,
      "byteOffset": 827764,
      "target": 34962
    },
    {
      "buffer": 0,
      "byteLength": 11130336,
      "byteOffset": 11958100,
      "target": 34962
    },
    {
      "buffer": 0,
      "byteLength": 7420224,
      "byteOffset": 23088436,
      "target": 34962
    },
    {
      "buffer": 0,
      "byteLength": 12720384,
      "byteOffset": 30508660,
      "target": 34963
    },
    {
      "buffer": 0,
      "byteLength": 4284660,
      "byteOffset": 43229044,
      "target": 34962
    },
    {
      "buffer": 0,
      "byteLength": 4284660,
      "byteOffset": 47513704,
      "target": 34962
    },
    {
      "buffer": 0,
      "byteLength": 2856440,
      "byteOffset": 51798364,
      "target": 34962
    },
    {
      "buffer": 0,
      "byteLength": 6055008,
      "byteOffset": 54654804,
      "target": 34963
    }
  ],
  "buffers": [
    {
      "byteLength": 60709812,
      "uri": "island_tree_01.bin"
    }
  ]
}
