{
  "asset": {
    "generator": "Khronos glTF Blender I/O v5.1.20",
    "version": "2.0"
  },
  "scene": 0,
  "scenes": [
    {
      "name": "Scene",
      "nodes": [
        0,
        1,
        2,
        3,
        4,
        5,
        6
      ]
    }
  ],
  "nodes": [
    {
      "mesh": 0,
      "name": "bolt_action_rifle_7_62_scope",
      "rotation": [
        0,
        0,
        -0.7071068286895752,
        0.7071068286895752
      ],
      "translation": [
        -0.20088982582092285,
        0.06649097800254822,
        -0.01378594059497118
      ]
    },
    {
      "mesh": 1,
      "name": "bolt_action_rifle_7_62_wrap",
      "translation": [
        -0.47727131843566895,
        -0.022015638649463654,
        -0.0003692209720611572
      ]
    },
    {
      "mesh": 2,
      "name": "bolt_action_rifle_7_62",
      "translation": [
        -0.5641504526138306,
        -0.05962500721216202,
        0
      ]
    },
    {
      "mesh": 3,
      "name": "bolt_action_rifle_7_62_bolt_b",
      "translation": [
        -0.23714835941791534,
        0.05067652463912964,
        0
      ]
    },
    {
      "mesh": 4,
      "name": "bolt_action_rifle_7_62_bolt_a",
      "translation": [
        -0.23714835941791534,
        0.05067652463912964,
        0
      ]
    },
    {
      "mesh": 5,
      "name": "bolt_action_rifle_7_62_bullet_54mm",
      "translation": [
        -0.20068682730197906,
        -0.05466724932193756,
        0
      ]
    },
    {
      "mesh": 6,
      "name": "bolt_action_rifle_7_62_trigger",
      "translation": [
        -0.5641504526138306,
        -0.05962500721216202,
        0
      ]
    }
  ],
  "materials": [
    {
      "doubleSided": true,
      "name": "bolt_action_rifle_7_62_accesories",
      "pbrMetallicRoughness": {}
    },
    {
      "alphaMode": "BLEND",
      "doubleSided": true,
      "name": "bolt_action_rifle_7_62_accesories_glass",
      "pbrMetallicRoughness": {}
    },
    {
      "doubleSided": true,
      "name": "bolt_action_rifle_7_62",
      "pbrMetallicRoughness": {}
    }
  ],
  "meshes": [
    {
      "name": "Circle.024",
      "primitives": [
        {
          "attributes": {
            "POSITION": 0,
            "NORMAL": 1,
            "TEXCOORD_0": 2
          },
          "indices": 3,
          "material": 0
        },
        {
          "attributes": {
            "POSITION": 4,
            "NORMAL": 5,
            "TEXCOORD_0": 6
          },
          "indices": 7,
          "material": 1
        }
      ]
    },
    {
      "name": "New Empty Mesh.002",
      "primitives": [
        {
          "attributes": {
            "POSITION": 8,
            "NORMAL": 9,
            "TEXCOORD_0": 10
          },
          "indices": 11,
          "material": 0
        }
      ]
    },
    {
      "name": "Cube.047",
      "primitives": [
        {
          "attributes": {
            "POSITION": 12,
            "NORMAL": 13,
            "TEXCOORD_0": 14
          },
          "indices": 15,
          "material": 2
        }
      ]
    },
    {
      "name": "Cylinder.106",
      "primitives": [
        {
          "attributes": {
            "POSITION": 16,
            "NORMAL": 17,
            "TEXCOORD_0": 18
          },
          "indices": 19,
          "material": 2
        }
      ]
    },
    {
      "name": "Cylinder.107",
      "primitives": [
        {
          "attributes": {
            "POSITION": 20,
            "NORMAL": 21,
            "TEXCOORD_0": 22
          },
          "indices": 23,
          "material": 2
        }
      ]
    },
    {
      "name": "Vert.023",
      "primitives": [
        {
          "attributes": {
            "POSITION": 24,
            "NORMAL": 25,
            "TEXCOORD_0": 26
          },
          "indices": 27,
          "material": 2
        }
      ]
    },
    {
      "name": "Cube.001",
      "primitives": [
        {
          "attributes": {
            "POSITION": 28,
            "NORMAL": 29,
            "TEXCOORD_0": 30
          },
          "indices": 31,
          "material": 2
        }
      ]
    }
  ],
  "accessors": [
    {
      "bufferView": 0,
      "componentType": 5126,
      "count": 6890,
      "max": [
        0.020932219922542572,
        0.04756694659590721,
        0.02547733299434185
      ],
      "min": [
        -0.029195940122008324,
        -0.06000050902366638,
        -0.012601867318153381
      ],
      "type": "VEC3"
    },
    {
      "bufferView": 1,
      "componentType": 5126,
      "count": 6890,
      "type": "VEC3"
    },
    {
      "bufferView": 2,
      "componentType": 5126,
      "count": 6890,
      "type": "VEC2"
    },
    {
      "bufferView": 3,
      "componentType": 5123,
      "count": 20142,
      "type": "SCALAR"
    },
    {
      "bufferView": 4,
      "componentType": 5126,
      "count": 59,
      "max": [
        -0.012744809500873089,
        0.04548710957169533,
        0.019967753440141678
      ],
      "min": [
        -0.02610621601343155,
        -0.05559620261192322,
        0.006606341805309057
      ],
      "type": "VEC3"
    },
    {
      "bufferView": 5,
      "componentType": 5126,
      "count": 59,
      "type": "VEC3"
    },
    {
      "bufferView": 6,
      "componentType": 5126,
      "count": 59,
      "type": "VEC2"
    },
    {
      "bufferView": 7,
      "componentType": 5123,
      "count": 216,
      "type": "SCALAR"
    },
    {
      "bufferView": 8,
      "componentType": 5126,
      "count": 1763,
      "max": [
        0.109769307076931,
        0.0440867617726326,
        0.02053096331655979
      ],
      "min": [
        -0.11620927602052689,
        -0.0699949711561203,
        -0.019568409770727158
      ],
      "type": "VEC3"
    },
    {
      "bufferView": 9,
      "componentType": 5126,
      "count": 1763,
      "type": "VEC3"
    },
    {
      "bufferView": 10,
      "componentType": 5126,
      "count": 1763,
      "type": "VEC2"
    },
    {
      "bufferView": 11,
      "componentType": 5123,
      "count": 5508,
      "type": "SCALAR"
    },
    {
      "bufferView": 12,
      "componentType": 5126,
      "count": 7636,
      "max": [
        1.1600557565689087,
        0.13345584273338318,
        0.02149074338376522
      ],
      "min": [
        -0.07091916352510452,
        -0.04920099303126335,
        -0.02149074338376522
      ],
      "type": "VEC3"
    },
    {
      "bufferView": 13,
      "componentType": 5126,
      "count": 7636,
      "type": "VEC3"
    },
    {
      "bufferView": 14,
      "componentType": 5126,
      "count": 7636,
      "type": "VEC2"
    },
    {
      "bufferView": 15,
      "componentType": 5123,
      "count": 22932,
      "type": "SCALAR"
    },
    {
      "bufferView": 16,
      "componentType": 5126,
      "count": 913,
      "max": [
        0.057519976049661636,
        0.014353388920426369,
        0.014292087405920029
      ],
      "min": [
        -0.0857716053724289,
        -0.01079388428479433,
        -0.009001387283205986
      ],
      "type": "VEC3"
    },
    {
      "bufferView": 17,
      "componentType": 5126,
      "count": 913,
      "type": "VEC3"
    },
    {
      "bufferView": 18,
      "componentType": 5126,
      "count": 913,
      "type": "VEC2"
    },
    {
      "bufferView": 19,
      "componentType": 5123,
      "count": 3267,
      "type": "SCALAR"
    },
    {
      "bufferView": 20,
      "componentType": 5126,
      "count": 1449,
      "max": [
        0.08484338223934174,
        0.008325277827680111,
        0.040199123322963715
      ],
      "min": [
        -0.03785546496510506,
        -0.03566781431436539,
        -0.009518366307020187
      ],
      "type": "VEC3"
    },
    {
      "bufferView": 21,
      "componentType": 5126,
      "count": 1449,
      "type": "VEC3"
    },
    {
      "bufferView": 22,
      "componentType": 5126,
      "count": 1449,
      "type": "VEC2"
    },
    {
      "bufferView": 23,
      "componentType": 5123,
      "count": 5718,
      "type": "SCALAR"
    },
    {
      "bufferView": 24,
      "componentType": 5126,
      "count": 448,
      "max": [
        0.03840475529432297,
        0.00726466067135334,
        0.00726466067135334
      ],
      "min": [
        -0.038445569574832916,
        -0.00726466067135334,
        -0.00726466067135334
      ],
      "type": "VEC3"
    },
    {
      "bufferView": 25,
      "componentType": 5126,
      "count": 448,
      "type": "VEC3"
    },
    {
      "bufferView": 26,
      "componentType": 5126,
      "count": 448,
      "type": "VEC2"
    },
    {
      "bufferView": 27,
      "componentType": 5123,
      "count": 1860,
      "type": "SCALAR"
    },
    {
      "bufferView": 28,
      "componentType": 5126,
      "count": 114,
      "max": [
        0.28293848037719727,
        0.0685599073767662,
        0.003500003134831786
      ],
      "min": [
        0.2682514786720276,
        0.029913589358329773,
        -0.0035000001080334187
      ],
      "type": "VEC3"
    },
    {
      "bufferView": 29,
      "componentType": 5126,
      "count": 114,
      "type": "VEC3"
    },
    {
      "bufferView": 30,
      "componentType": 5126,
      "count": 114,
      "type": "VEC2"
    },
    {
      "bufferView": 31,
      "componentType": 5123,
      "count": 312,
      "type": "SCALAR"
    }
  ],
  "bufferViews": [
    {
      "buffer": 0,
      "byteLength": 82680,
      "byteOffset": 0,
      "target": 34962
    },
    {
      "buffer": 0,
      "byteLength": 82680,
      "byteOffset": 82680,
      "target": 34962
    },
    {
      "buffer": 0,
      "byteLength": 55120,
      "byteOffset": 165360,
      "target": 34962
    },
    {
      "buffer": 0,
      "byteLength": 40284,
      "byteOffset": 220480,
      "target": 34963
    },
    {
      "buffer": 0,
      "byteLength": 708,
      "byteOffset": 260764,
      "target": 34962
    },
    {
      "buffer": 0,
      "byteLength": 708,
      "byteOffset": 261472,
      "target": 34962
    },
    {
      "buffer": 0,
      "byteLength": 472,
      "byteOffset": 262180,
      "target": 34962
    },
    {
      "buffer": 0,
      "byteLength": 432,
      "byteOffset": 262652,
      "target": 34963
    },
    {
      "buffer": 0,
      "byteLength": 21156,
      "byteOffset": 263084,
      "target": 34962
    },
    {
      "buffer": 0,
      "byteLength": 21156,
      "byteOffset": 284240,
      "target": 34962
    },
    {
      "buffer": 0,
      "byteLength": 14104,
      "byteOffset": 305396,
      "target": 34962
    },
    {
      "buffer": 0,
      "byteLength": 11016,
      "byteOffset": 319500,
      "target": 34963
    },
    {
      "buffer": 0,
      "byteLength": 91632,
      "byteOffset": 330516,
      "target": 34962
    },
    {
      "buffer": 0,
      "byteLength": 91632,
      "byteOffset": 422148,
      "target": 34962
    },
    {
      "buffer": 0,
      "byteLength": 61088,
      "byteOffset": 513780,
      "target": 34962
    },
    {
      "buffer": 0,
      "byteLength": 45864,
      "byteOffset": 574868,
      "target": 34963
    },
    {
      "buffer": 0,
      "byteLength": 10956,
      "byteOffset": 620732,
      "target": 34962
    },
    {
      "buffer": 0,
      "byteLength": 10956,
      "byteOffset": 631688,
      "target": 34962
    },
    {
      "buffer": 0,
      "byteLength": 7304,
      "byteOffset": 642644,
      "target": 34962
    },
    {
      "buffer": 0,
      "byteLength": 6534,
      "byteOffset": 649948,
      "target": 34963
    },
    {
      "buffer": 0,
      "byteLength": 17388,
      "byteOffset": 656484,
      "target": 34962
    },
    {
      "buffer": 0,
      "byteLength": 17388,
      "byteOffset": 673872,
      "target": 34962
    },
    {
      "buffer": 0,
      "byteLength": 11592,
      "byteOffset": 691260,
      "target": 34962
    },
    {
      "buffer": 0,
      "byteLength": 11436,
      "byteOffset": 702852,
      "target": 34963
    },
    {
      "buffer": 0,
      "byteLength": 5376,
      "byteOffset": 714288,
      "target": 34962
    },
    {
      "buffer": 0,
      "byteLength": 5376,
      "byteOffset": 719664,
      "target": 34962
    },
    {
      "buffer": 0,
      "byteLength": 3584,
      "byteOffset": 725040,
      "target": 34962
    },
    {
      "buffer": 0,
      "byteLength": 3720,
      "byteOffset": 728624,
      "target": 34963
    },
    {
      "buffer": 0,
      "byteLength": 1368,
      "byteOffset": 732344,
      "target": 34962
    },
    {
      "buffer": 0,
      "byteLength": 1368,
      "byteOffset": 733712,
      "target": 34962
    },
    {
      "buffer": 0,
      "byteLength": 912,
      "byteOffset": 735080,
      "target": 34962
    },
    {
      "buffer": 0,
      "byteLength": 624,
      "byteOffset": 735992,
      "target": 34963
    }
  ],
  "buffers": [
    {
      "byteLength": 736616,
      "uri": "bolt_action_rifle_7_62.bin"
    }
  ]
}
