{
  "asset": {
    "generator": "Khronos glTF Blender I/O v3.3.32",
    "version": "2.0"
  },
  "scene": 0,
  "scenes": [
    {
      "name": "blend_export",
      "nodes": [
        0
      ]
    }
  ],
  "nodes": [
    {
      "mesh": 0,
      "name": "bleach_bottle"
    }
  ],
  "materials": [
    {
      "doubleSided": true,
      "name": "bleach_bottle",
      "pbrMetallicRoughness": {
        "metallicFactor": 0
      }
    }
  ],
  "meshes": [
    {
      "name": "Cube",
      "primitives": [
        {
          "attributes": {
            "POSITION": 0,
            "NORMAL": 1,
            "TEXCOORD_0": 2
          },
          "indices": 3,
          "material": 0
        }
      ]
    }
  ],
  "accessors": [
    {
      "bufferView": 0,
      "componentType": 5126,
      "count": 2563,
      "max": [
        0.04419554024934769,
        0.2937394976615906,
        0.03060544654726982
      ],
      "min": [
        -0.044195596128702164,
        0,
        -0.03060544654726982
      ],
      "type": "VEC3"
    },
    {
      "bufferView": 1,
      "componentType": 5126,
      "count": 2563,
      "type": "VEC3"
    },
    {
      "bufferView": 2,
      "componentType": 5126,
      "count": 2563,
      "type": "VEC2"
    },
    {
      "bufferView": 3,
      "componentType": 5123,
      "count": 12156,
      "type": "SCALAR"
    }
  ],
  "bufferViews": [
    {
      "buffer": 0,
      "byteLength": 30756,
      "byteOffset": 0,
      "target": 34962
    },
    {
      "buffer": 0,
      "byteLength": 30756,
      "byteOffset": 30756,
      "target": 34962
    },
    {
      "buffer": 0,
      "byteLength": 20504,
      "byteOffset": 61512,
      "target": 34962
    },
    {
      "buffer": 0,
      "byteLength": 24312,
      "byteOffset": 82016,
      "target": 34963
    }
  ],
  "buffers": [
    {
      "byteLength": 106328,
      "uri": "bleach_bottle.bin"
    }
  ]
}
